<?xml version="1.0" encoding="utf-8"?>
<!-- Generator: Adobe Illustrator 27.1.1, SVG Export Plug-In . SVG Version: 6.00 Build 0)  -->
<svg version="1.1" id="Vrstva_1" xmlns="http://www.w3.org/2000/svg" xmlns:xlink="http://www.w3.org/1999/xlink" x="0px" y="0px"
	 viewBox="0 0 1024 512" style="enable-background:new 0 0 1024 512;" xml:space="preserve">
<g>
	<g>
		<g>
			<g>
				<path d="M409.33,279.95v-4.07c18.21,0,19.28-7.89,19.28-25.24V138.58c0-17.35-1.07-25.24-19.28-25.24v-4.07h62.12v4.07
					c-18.21,0-19.28,7.89-19.28,25.24v112.06c0,17.35,1.07,25.24,19.28,25.24v4.07H409.33z"/>
				<path d="M319.37,200.63c0,0-0.18,4.07,0,4.07c23.88,0,23.86,12.87,23.83,25.42c0,0.51-0.01,1.02-0.01,1.55v25.77
					c0,13.61-18.2,19.38-41.24,19.38c-39.34,0-63.7-34.16-63.7-81.96c0-40.45,17.52-76.95,44.73-86.74
					C240.93,115.73,212,149.1,212,195.09c0,51.31,35.09,87.66,89.16,87.66c27.32,0,49.11-7.96,64.09-16.88v-34.22
					c0-17.36,0.5-26.97,10.08-26.97v-4.06H319.37z"/>
				<path d="M570.5,109.28h-62.11v4.07c18.21,0,19.27,7.88,19.27,25.24v112.06c0,17.33-1.06,25.24-19.27,25.24v4.07h42.84V138.59
					c0-17.36,1.06-25.24,19.27-25.24V109.28z"/>
			</g>
			<path d="M812,130.43v93.26c0,39.61-23.54,59.07-63.98,59.07c-42.84,0-65.86-18.5-65.86-58.59v-85.58
				c0-16.18,0.21-24.88-13.41-25.14v-4.12c0.61-0.03,1.2-0.05,1.76-0.05c16.77,0,54.77,0,54.77,0v4.08h-0.81
				c-17.43,0.24-18.47,8.14-18.47,25.23v83.93c0,37.98,13.65,51.63,46.59,51.63c32.92,0,50.43-13.65,50.43-50.46v-85.1h-0.03
				c0-17.35,0.44-25.23-17.77-25.23v-4.08h5.64C802.54,109.28,812,118.74,812,130.43z"/>
		</g>
	</g>
	<path d="M327.86,110.65v-3.92h36.39c0,0,0,24.16,0,35.1h-3.46C360.44,123.29,355.14,110.65,327.86,110.65z"/>
	<path d="M633.83,240.2h4.28v39.76c0,0-26.4,0-38.36,0v-3.79C620.02,275.8,633.83,270,633.83,240.2z"/>
	<g>
		<path d="M362,404.48v-52.95h6.43v22.89h31.81v-22.89h6.43v52.95h-6.43v-24.21h-31.81v24.21H362z"/>
		<path d="M441.53,378.01c0-16.22,11.7-27.21,27.14-27.21c15.44,0,27.14,10.99,27.14,27.21s-11.7,27.25-27.14,27.25
			C453.23,405.26,441.53,394.23,441.53,378.01z M468.67,399.26c11.85,0,20.39-8.54,20.39-21.25s-8.54-21.21-20.39-21.21
			c-11.85,0-20.39,8.5-20.39,21.21S456.82,399.26,468.67,399.26z"/>
		<path d="M530.65,351.54h8.23l19.69,40.32l19.69-40.32h8.23v52.95h-6.43v-42.54l-19.14,38.64h-4.68l-19.14-38.64v42.54h-6.43
			V351.54z"/>
		<path d="M624.77,351.54h36.42v5.85H631.2v16.96h25.89v5.85H631.2v18.48H662v5.81h-37.23V351.54z"/>
	</g>
</g>
</svg>
