<?xml version="1.0" encoding="utf-8"?>
<!-- Generator: Adobe Illustrator 27.1.1, SVG Export Plug-In . SVG Version: 6.00 Build 0)  -->
<svg version="1.1" id="Vrstva_1" xmlns="http://www.w3.org/2000/svg" xmlns:xlink="http://www.w3.org/1999/xlink" x="0px" y="0px"
	 viewBox="0 0 2000 2000" style="enable-background:new 0 0 2000 2000;" xml:space="preserve">
<style type="text/css">
	.st0{fill:#FFFFFF;}
</style>
<rect width="2000" height="2000"/>
<g>
	<g>
		<g>
			<g>
				<path class="st0" d="M743.32,1059.87v-10.17c45.52,0,48.2-19.72,48.2-63.09V706.46c0-43.37-2.68-63.09-48.2-63.09V633.2h155.29
					v10.17c-45.52,0-48.2,19.72-48.2,63.09v280.15c0,43.37,2.68,63.09,48.2,63.09v10.17H743.32z"/>
				<path class="st0" d="M518.42,861.57c0,0-0.45,10.16,0,10.16c59.7,0,59.66,32.17,59.59,63.56c0,1.28-0.04,2.55-0.04,3.86v64.42
					c0,34.01-45.49,48.45-103.09,48.45c-98.36,0-159.26-85.39-159.26-204.9c0-101.14,43.8-192.37,111.83-216.86
					C322.34,649.32,250,732.76,250,847.74c0,128.29,87.71,219.15,222.9,219.15c68.29,0,122.77-19.91,160.24-42.19v-85.54
					c0-43.39,1.24-67.43,25.2-67.43v-10.16H518.42z"/>
				<path class="st0" d="M1146.26,633.2H990.98v10.18c45.53,0,48.19,19.7,48.19,63.1v280.14c0,43.33-2.66,63.1-48.19,63.1v10.18
					h107.09V706.48c0-43.4,2.66-63.1,48.19-63.1V633.2z"/>
			</g>
			<path class="st0" d="M1750,686.07v233.14c0,99.04-58.84,147.68-159.94,147.68c-107.1,0-164.66-46.24-164.66-146.48V706.47
				c0-40.46,0.53-62.21-33.53-62.85v-10.31c1.54-0.08,3-0.11,4.39-0.11c41.92,0,136.91,0,136.91,0v10.2h-2.02
				c-43.57,0.6-46.16,20.36-46.16,63.07v209.81c0,94.95,34.12,129.08,116.47,129.08c82.31,0,126.07-34.13,126.07-126.15V706.47
				h-0.08c0-43.39,1.09-63.07-44.44-63.07v-10.2h14.1C1726.34,633.2,1750,656.86,1750,686.07z"/>
		</g>
	</g>
	<path class="st0" d="M539.65,636.63v-9.79h90.98c0,0,0,60.41,0,87.76h-8.66C621.11,668.21,607.84,636.63,539.65,636.63z"/>
	<path class="st0" d="M1304.57,960.5h10.7v99.41c0,0-66,0-95.89,0v-9.46C1270.06,1049.5,1304.57,1035.01,1304.57,960.5z"/>
	<g>
		<path class="st0" d="M625,1371.21v-132.37h16.08v57.22h79.54v-57.22h16.08v132.37h-16.08v-60.53h-79.54v60.53H625z"/>
		<path class="st0" d="M823.83,1305.03c0-40.55,29.24-68.04,67.84-68.04s67.84,27.49,67.84,68.04s-29.24,68.13-67.84,68.13
			S823.83,1345.57,823.83,1305.03z M891.67,1358.15c29.63,0,50.98-21.35,50.98-53.12S921.3,1252,891.67,1252
			s-50.98,21.25-50.98,53.02S862.04,1358.15,891.67,1358.15z"/>
		<path class="st0" d="M1046.64,1238.84h20.57l49.23,100.79l49.22-100.79h20.57v132.37h-16.08v-106.34l-47.86,96.6h-11.7
			l-47.86-96.6v106.34h-16.08V1238.84z"/>
		<path class="st0" d="M1281.91,1238.84h91.04v14.62H1298v42.4h64.72v14.62H1298v46.2h77v14.52h-93.09V1238.84z"/>
	</g>
</g>
</svg>
